<?xml version="1.0" encoding="UTF-8"?>
<svg id="Layer_1" xmlns="http://www.w3.org/2000/svg" viewBox="0 0 327.09 14.49">
<defs>
<style>.cls-1{fill:#707071;}</style>
</defs>
<path class="cls-1" d="M7.51,0c-10.01-.32-10.01,14.8,0,14.48,10.01.33,10.01-14.81,0-14.48ZM7.51,11.73c-5.76.22-5.76-9.18,0-8.96,5.76-.22,5.76,9.18,0,8.96ZM33.39,14.25l-.04-14h-2.66l-5.16,8.7L20.29.25h-2.68v14h3.04V6.03l4.1,6.74h1.46l4.12-6.92.02,8.4h3.04ZM44.31.25h-3.2l-6.24,14h3.32l1.24-3h6.5l1.24,3h3.4L44.31.25ZM40.47,8.79l2.22-5.36,2.22,5.36h-4.44ZM61.29,9.75c5.21-2.35,2.94-10.05-3.2-9.5,0,0-6.06,0-6.06,0v14h3.24v-3.9h2.98l2.7,3.9h3.48l-3.14-4.5ZM55.27,7.77V2.89c2.03-.06,5.88-.32,5.62,2.44.26,2.75-3.6,2.5-5.62,2.44ZM81.99.25v5.52h-6.36V.25h-3.24v14h3.24v-5.74h6.36v5.74h3.24V.25h-3.24ZM96.15.25h-3.2l-6.24,14h3.32l1.24-3h6.5l1.24,3h3.4L96.15.25ZM92.31,8.79l2.22-5.36,2.22,5.36h-4.44ZM114.15,6.97c3.66-2.32,1.74-7.06-3.44-6.72,0,0-6.84,0-6.84,0v14h7.24c5.79.57,7.66-5.46,3.04-7.28ZM107.09,2.69h3.22c3.26-.24,3.25,3.52,0,3.3,0,0-3.22,0-3.22,0v-3.3ZM110.87,11.81h-3.78v-3.46h3.78c3.44-.26,3.45,3.75,0,3.46ZM126.77.25h-3.2l-6.24,14h3.32l1.24-3h6.5l1.24,3h3.4L126.77.25ZM122.93,8.79l2.22-5.36,2.22,5.36h-4.44ZM139.09,14.49c4,0,5.94-2,5.94-4.34,0-5.14-8.14-3.36-8.14-5.94.05-2.39,4.98-1.66,6.54-.5l1-2.46c-3.46-2.41-11.2-1.21-10.76,3.12,0,5.2,8.14,3.4,8.14,6.02-.3,2.54-5.73,1.4-7.32.04l-1.1,2.44c1.69,1.1,3.68,1.67,5.7,1.62ZM156.85.25v5.52h-6.36V.25h-3.24v14h3.24v-5.74h6.36v5.74h3.24V.25h-3.24ZM174.51,0c-10.01-.32-10.01,14.8,0,14.48,10.01.33,10.01-14.81,0-14.48ZM174.51,11.73c-5.76.22-5.76-9.18,0-8.96,5.76-.22,5.76,9.18,0,8.96ZM200.39,14.25l-.04-14h-2.66l-5.16,8.7L187.29.25h-2.68v14h3.04V6.03l4.1,6.74h1.46l4.12-6.92.02,8.4h3.04ZM211.31.25h-3.2l-6.24,14h3.32l1.24-3h6.5l1.24,3h3.4L211.31.25ZM207.47,8.79l2.22-5.36,2.22,5.36h-4.44ZM228.29,9.75c5.21-2.35,2.94-10.05-3.2-9.5,0,0-6.06,0-6.06,0v14h3.24v-3.9h2.98l2.7,3.9h3.48l-3.14-4.5ZM222.27,7.77V2.89c2.03-.06,5.88-.32,5.62,2.44.26,2.75-3.6,2.5-5.62,2.44ZM248.99.25v5.52h-6.36V.25h-3.24v14h3.24v-5.74h6.36v5.74h3.24V.25h-3.24ZM263.15.25h-3.2l-6.24,14h3.32l1.24-3h6.5l1.24,3h3.4l-6.26-14ZM259.31,8.79l2.22-5.36,2.22,5.36h-4.44ZM281.15,6.97c3.66-2.32,1.74-7.06-3.44-6.72,0,0-6.84,0-6.84,0v14h7.24c5.79.57,7.66-5.46,3.04-7.28ZM274.09,2.69h3.22c3.26-.24,3.25,3.52,0,3.3,0,0-3.22,0-3.22,0v-3.3ZM277.87,11.81h-3.78v-3.46h3.78c3.44-.26,3.45,3.75,0,3.46ZM293.77.25h-3.2l-6.24,14h3.32l1.24-3h6.5l1.24,3h3.4l-6.26-14ZM289.93,8.79l2.22-5.36,2.22,5.36h-4.44ZM306.09,14.49c4,0,5.94-2,5.94-4.34,0-5.14-8.14-3.36-8.14-5.94.05-2.39,4.98-1.66,6.54-.5l1-2.46c-3.46-2.41-11.2-1.21-10.76,3.12,0,5.2,8.14,3.4,8.14,6.02-.3,2.54-5.73,1.4-7.32.04l-1.1,2.44c1.69,1.1,3.68,1.67,5.7,1.62ZM323.85.25v5.52h-6.36V.25h-3.24v14h3.24v-5.74h6.36v5.74h3.24V.25h-3.24Z"/>
</svg>