<?xml version="1.0" encoding="UTF-8"?>
<svg id="Layer_1" xmlns="http://www.w3.org/2000/svg" xmlns:xlink="http://www.w3.org/1999/xlink" version="1.1" viewBox="0 0 412 146">
  <!-- Generator: Adobe Illustrator 29.1.0, SVG Export Plug-In . SVG Version: 2.1.0 Build 142)  -->
  <defs>
    <style>
      .st0, .st1, .st2 {
        fill: none;
      }

      .st3 {
        font-size: 20.4px;
        letter-spacing: .5em;
      }

      .st3, .st4, .st5 {
        fill: #0f0f0f;
      }

      .st3, .st6, .st7, .st8 {
        font-family: OpenSans-Semibold, 'Open Sans';
        font-weight: 600;
      }

      .st9 {
        fill: url(#linear-gradient2);
      }

      .st10 {
        fill: url(#linear-gradient1);
      }

      .st11 {
        fill: url(#linear-gradient9);
      }

      .st12 {
        fill: url(#linear-gradient3);
      }

      .st13 {
        fill: url(#linear-gradient6);
      }

      .st14 {
        fill: url(#linear-gradient8);
      }

      .st15 {
        fill: url(#linear-gradient7);
      }

      .st16 {
        fill: url(#linear-gradient5);
      }

      .st17 {
        fill: url(#linear-gradient4);
      }

      .st18, .st19, .st20, .st21 {
        fill: #474747;
      }

      .st18, .st22, .st20, .st23 {
        font-size: 242.4px;
      }

      .st18, .st24, .st20, .st25, .st26 {
        font-weight: 700;
      }

      .st18, .st20, .st26 {
        font-family: OpenSans-Extrabold, 'Open Sans';
      }

      .st18, .st23 {
        letter-spacing: 0em;
      }

      .st27 {
        fill: gray;
      }

      .st1, .st2, .st28 {
        stroke: #fff;
        stroke-miterlimit: 10;
      }

      .st1, .st28 {
        stroke-width: 8px;
      }

      .st29 {
        font-size: 15.3px;
        letter-spacing: .5em;
      }

      .st29, .st30, .st31, .st32, .st7, .st33, .st34, .st35, .st36, .st37, .st38, .st39, .st40, .st26, .st41 {
        fill: #fff;
      }

      .st29, .st31, .st42, .st32, .st21 {
        font-family: OpenSans, 'Open Sans';
      }

      .st43 {
        fill: url(#linear-gradient13);
      }

      .st44 {
        fill: url(#linear-gradient12);
      }

      .st45 {
        fill: url(#linear-gradient15);
      }

      .st46 {
        fill: url(#linear-gradient11);
      }

      .st47 {
        fill: url(#linear-gradient10);
      }

      .st48 {
        fill: url(#linear-gradient14);
      }

      .st49 {
        fill: #d30000;
      }

      .st50 {
        font-family: HiraMaruProN-W4-83pv-RKSJ-H, 'Hiragino Maru Gothic ProN';
        font-size: 68.6px;
      }

      .st50, .st42, .st6, .st8, .st51 {
        fill: #d00;
      }

      .st2 {
        stroke-width: 3px;
      }

      .st52 {
        fill: url(#linear-gradient);
      }

      .st53 {
        fill: #1e1e1e;
      }

      .st4 {
        font-size: 60px;
      }

      .st4, .st22, .st34, .st36, .st39 {
        font-weight: 800;
      }

      .st4, .st34, .st36, .st39 {
        font-family: SinkinSans-900XBlack, 'SinkinSans 900XBlack';
      }

      .st30 {
        font-size: 38px;
      }

      .st30, .st38 {
        font-family: Knockout-HTF94-UltmtSumo, 'Knockout HTF94-UltmtSumo';
      }

      .st22 {
        font-family: SinkinSans-800Black, 'SinkinSans 800Black';
        letter-spacing: 0em;
      }

      .st31 {
        font-size: 33.8px;
        letter-spacing: .5em;
      }

      .st24 {
        fill: #282828;
      }

      .st24, .st21 {
        font-size: 32.9px;
        letter-spacing: .4em;
      }

      .st24, .st25 {
        font-family: OpenSans-Bold, 'Open Sans';
      }

      .st42 {
        font-size: 17.5px;
        letter-spacing: .5em;
      }

      .st32 {
        font-size: 36.7px;
        letter-spacing: .5em;
      }

      .st54 {
        font-size: 227.3px;
      }

      .st54, .st55, .st40 {
        font-family: Geometos, Geometos;
      }

      .st6 {
        font-size: 14.8px;
        letter-spacing: .5em;
      }

      .st7 {
        font-size: 48.4px;
        letter-spacing: .4em;
      }

      .st34 {
        font-size: 123.9px;
      }

      .st35 {
        font-family: HiraKakuStdN-W8-83pv-RKSJ-H, 'Hiragino Kaku Gothic StdN';
      }

      .st35, .st36 {
        font-size: 60.1px;
      }

      .st37 {
        font-family: Anaheim, Anaheim;
        font-size: 112.1px;
      }

      .st8 {
        font-size: 18px;
        letter-spacing: .5em;
      }

      .st55 {
        font-size: 98.6px;
      }

      .st38 {
        font-size: 37px;
      }

      .st39 {
        font-size: 134.5px;
      }

      .st56 {
        font-size: 609.4px;
      }

      .st56, .st41 {
        font-family: LucidaConsole, LucidaConsole;
      }

      .st25 {
        fill: #232323;
        font-size: 22px;
        letter-spacing: .5em;
      }

      .st40 {
        font-size: 90.6px;
      }

      .st23 {
        font-family: SinkinSans-300Light, 'SinkinSans 300Light';
        font-weight: 300;
      }

      .st26 {
        font-size: 251.1px;
        letter-spacing: 0em;
      }

      .st57 {
        fill: #161616;
      }

      .st41 {
        font-size: 43.4px;
      }
    </style>
    <linearGradient id="linear-gradient" x1="273.5" y1="-831.3" x2="1554.1" y2="-831.3" gradientUnits="userSpaceOnUse">
      <stop offset="0" stop-color="#00d48a"/>
      <stop offset=".1" stop-color="#06b99b"/>
      <stop offset=".2" stop-color="#0c9fad"/>
      <stop offset=".6" stop-color="#1b5bd8"/>
      <stop offset="1" stop-color="#2a20ff"/>
    </linearGradient>
    <linearGradient id="linear-gradient1" x1="1355" y1="-1873" x2="2303" y2="-1873" xlink:href="#linear-gradient"/>
    <linearGradient id="linear-gradient2" x1="2830.8" y1="290.2" x2="3155.5" y2="290.2" xlink:href="#linear-gradient"/>
    <linearGradient id="linear-gradient3" x1="2182.9" y1="1517.2" x2="2960.6" y2="1517.2" gradientUnits="userSpaceOnUse">
      <stop offset="0" stop-color="#7c0000"/>
      <stop offset=".3" stop-color="#890505"/>
      <stop offset=".7" stop-color="#980a0a"/>
      <stop offset="1" stop-color="#9e0d0d"/>
    </linearGradient>
    <linearGradient id="linear-gradient4" x1="3520" y1="775.2" x2="3844.7" y2="775.2" xlink:href="#linear-gradient"/>
    <linearGradient id="linear-gradient5" x1="3619" y1="1352.6" x2="3751.4" y2="1352.6" xlink:href="#linear-gradient3"/>
    <linearGradient id="linear-gradient6" x1="3637.4" y1="1323.3" x2="3736.6" y2="1323.3" xlink:href="#linear-gradient3"/>
    <linearGradient id="linear-gradient7" x1="1460.5" y1="1179.9" x2="1451.4" y2="984.5" xlink:href="#linear-gradient3"/>
    <linearGradient id="linear-gradient8" x1="1618.2" y1="1172.6" x2="1609.1" y2="977.1" xlink:href="#linear-gradient3"/>
    <linearGradient id="linear-gradient9" x1="1837.6" y1="1162.4" x2="1828.5" y2="966.9" xlink:href="#linear-gradient3"/>
    <linearGradient id="linear-gradient10" x1="2043.1" y1="1152.8" x2="2034" y2="957.3" xlink:href="#linear-gradient3"/>
    <linearGradient id="linear-gradient11" x1="1460.5" y1="766.9" x2="1451.4" y2="571.5" xlink:href="#linear-gradient"/>
    <linearGradient id="linear-gradient12" x1="1618.2" y1="759.6" x2="1609.1" y2="564.1" xlink:href="#linear-gradient"/>
    <linearGradient id="linear-gradient13" x1="1837.6" y1="749.4" x2="1828.5" y2="553.9" xlink:href="#linear-gradient"/>
    <linearGradient id="linear-gradient14" x1="2043.1" y1="739.8" x2="2034" y2="544.3" xlink:href="#linear-gradient"/>
    <linearGradient id="linear-gradient15" x1="4241" y1="2178.5" x2="5175" y2="2178.5" gradientUnits="userSpaceOnUse">
      <stop offset="0" stop-color="#1ba98b"/>
      <stop offset=".3" stop-color="#3460d7"/>
      <stop offset=".5" stop-color="#413bff"/>
      <stop offset=".8" stop-color="#772095"/>
      <stop offset="1" stop-color="#9e0d4a"/>
    </linearGradient>
  </defs>
  <g>
    <path class="st51" d="M3149-1949.5c-181.2,0-335.7,114.2-395.5,274.5h791c-59.8-160.3-214.3-274.5-395.5-274.5Z"/>
    <path class="st51" d="M3149-1063.5c181.2,0,335.7-114.2,395.5-274.5h-791c59.8,160.3,214.3,274.5,395.5,274.5Z"/>
    <path class="st51" d="M3544.5-1653h-791c-17.1,45.9-26.5,95.6-26.5,147.5s9.4,101.6,26.5,147.5h791c17.1-45.9,26.5-95.6,26.5-147.5s-9.4-101.6-26.5-147.5Z"/>
  </g>
  <text class="st56" transform="translate(2187.2 -2173.5)"><tspan x="0" y="0">J</tspan></text>
  <circle class="st51" cx="2200.3" cy="-2347.1" r="216.7"/>
  <g>
    <circle class="st51" cx="3380.1" cy="290.2" r="162.3"/>
    <path class="st33" d="M3380.1,443.6c-84.6,0-153.4-68.8-153.4-153.4s68.8-153.4,153.4-153.4,153.4,68.8,153.4,153.4-68.8,153.4-153.4,153.4ZM3380.1,143.3c-81,0-146.9,65.9-146.9,146.9s65.9,146.9,146.9,146.9,146.9-65.9,146.9-146.9-65.9-146.9-146.9-146.9Z"/>
    <text class="st41" transform="translate(3262.4 307.7)"><tspan x="0" y="0">JOMA TECH</tspan></text>
  </g>
  <circle class="st52" cx="913.8" cy="-831.3" r="640.3"/>
  <circle class="st10" cx="1829" cy="-1873" r="474"/>
  <circle class="st1" cx="5363.7" cy="-1702.1" r="169.4"/>
  <circle class="st51" cx="3824.5" cy="-1996.5" r="62.5"/>
  <text/>
  <path class="st51" d="M5393.3-2044.9c29-.5,56.7,5.3,81.7,16.2l-86.2-255.1-77.1,258.3c24.7-11.9,52.4-18.9,81.6-19.4Z"/>
  <path class="st51" d="M4084-1685.5c16,24.2,23.9,52,24.4,81.5l254.8-266.9-345.4,131c27.2,11.9,50.1,30,66.2,54.4Z"/>
  <g>
    <path class="st0" d="M5349.1-1691.8l-.6,77.8c34.6,8.6,71.2,7.6,105.4-2.9l.6-79.8,24,.2-.5,70.4c20.2-9.3,39.1-22.1,55.8-38.6,77.2-76,78.1-200.7,2-277.9-76-77.2-200.7-78.1-277.9-2-77.2,76-78.1,200.7-2,277.9,20.1,20.4,43.5,35.4,68.6,45.2l.5-70.5,24,.2Z"/>
    <path class="st51" d="M5397.5-2025.1c-58.9-.4-114.4,22.1-156.4,63.4-42,41.3-65.3,96.5-65.7,155.4s22.1,114.4,63.4,156.4c24.4,24.7,53.6,43,85.5,53.9l.2-25.6c-25.1-9.7-48.6-24.8-68.6-45.2-76-77.2-75.1-201.8,2-277.9,77.2-76,201.8-75.1,277.9,2,76,77.2,75.1,201.8-2,277.9-16.7,16.5-35.6,29.3-55.8,38.6l-.2,26.3c26.9-10.7,51.6-26.8,72.9-47.8,42-41.3,65.3-96.5,65.7-155.4.4-58.9-22.1-114.4-63.4-156.4-41.3-42-96.5-65.3-155.4-65.7Z"/>
    <path class="st51" d="M5349.1-1691.8l-24-.2-.5,70.5c7.8,3,15.8,5.6,23.9,7.6l.6-77.8Z"/>
    <path class="st51" d="M5324.5-1621.5l-.2,25.6c7.8,2.7,15.8,4.9,24,6.7l.2-24.7c-8.1-2-16.1-4.5-23.9-7.6Z"/>
    <path class="st51" d="M5454.5-1696.7l-.6,79.8c8.2-2.5,16.2-5.6,24.1-9.2l.5-70.4-24-.2Z"/>
    <path class="st51" d="M5389.4-1685.8l-1.7,227.6c8.2-2.5,16.2-5.6,24.1-9.2l1.6-218.2-24-.2Z"/>
    <path class="st51" d="M5453.9-1616.9l-.2,25.2c8.2-2.2,16.2-4.9,24.1-8l.2-26.3c-7.9,3.6-15.9,6.7-24.1,9.2Z"/>
  </g>
  <g>
    <path class="st51" d="M2724.6,199.4c-30-30.4-70-47.3-112.6-47.6s-82.9,16-113.3,46c-30.4,30-47.3,70-47.6,112.6s16,82.9,46,113.3c17.7,17.9,38.8,31.2,62,39.1v-18.6c-18-7.1-35-18-49.6-32.7-55.1-55.9-54.4-146.3,1.5-201.4,55.9-55.1,146.3-54.4,201.4,1.5,55.1,55.9,54.4,146.3-1.5,201.4-12.1,11.9-25.8,21.2-40.4,27.9v19.1c19.3-7.8,37.3-19.5,52.7-34.6,30.4-30,47.3-70,47.6-112.6.3-42.7-16-82.9-46-113.3Z"/>
    <path class="st51" d="M2559.5,377.2l-.3,67c5.7,2.2,11.5,4,17.4,5.5l.3-63.2c-6.1-2.5-11.9-5.6-17.3-9.3Z"/>
    <path class="st51" d="M2559,462.8c5.7,1.9,11.5,3.5,17.4,4.8v-17.9c-5.7-1.4-11.5-3.3-17.2-5.5v18.6Z"/>
    <path class="st51" d="M2670.7,370.5c-5.3,4.7-11.2,8.8-17.5,12.1l-.3,64.9c5.9-1.8,11.8-4,17.4-6.6l.4-70.4Z"/>
    <path class="st51" d="M2605.7,453.8l-.8,57.3c5.9-1.8,11.8-4,17.4-6.6l.8-51.1c-5.8.5-11.6.6-17.4.4Z"/>
    <path class="st51" d="M2610.8,393.1c-1.6,0-3.2,0-4.8-.1l-.3,60.8c5.8.2,11.6,0,17.4-.4l.3-61.1c-4.1.6-8.3.9-12.6.9Z"/>
    <path class="st51" d="M2652.9,447.6v18.2c5.8-1.6,11.6-3.5,17.3-5.8v-19.1c-5.6,2.6-11.4,4.8-17.3,6.6Z"/>
  </g>
  <text class="st8" transform="translate(2569.5 349.6)"><tspan x="0" y="0">TECH</tspan></text>
  <g>
    <path class="st51" d="M3799.9-1595.1l-42,26.5c0,9.7,1,19.2,2.7,28.2l40.5-25.6,142.7-90.4c.8-11.1,3.4-22.7,7.5-34.7l-151.5,95.9Z"/>
    <path class="st51" d="M4012.4-1588.3l-146.7,92.9-41.2,26.1c8.2,5,17.2,9.3,26.8,13l43.1-27.2,159.1-100.7c-14.7.2-28.5-1.1-40.9-4.1Z"/>
    <path class="st51" d="M3952-1621.2l-137.3,86.9-245.9,155.3c8.7,4.6,18.3,8.6,28.6,11.8l231.8-146.4,138-87.4c-4.5-4.2-8.5-8.9-11.8-14.2s-2.4-4-3.5-6.1Z"/>
  </g>
  <g>
    <circle class="st9" cx="2993.2" cy="290.2" r="162.3"/>
    <path class="st33" d="M2993.2,443.6c-84.6,0-153.4-68.8-153.4-153.4s68.8-153.4,153.4-153.4,153.4,68.8,153.4,153.4-68.8,153.4-153.4,153.4ZM2993.2,143.3c-81,0-146.9,65.9-146.9,146.9s65.9,146.9,146.9,146.9,146.9-65.9,146.9-146.9-65.9-146.9-146.9-146.9Z"/>
    <text class="st36" transform="translate(2914.6 302.7) scale(1.1 1)"><tspan x="0" y="0">JOMA</tspan></text>
    <text class="st29" transform="translate(2958.5 341)"><tspan x="0" y="0">TECH</tspan></text>
  </g>
  <g>
    <circle class="st12" cx="2571.7" cy="1517.2" r="388.8"/>
    <path class="st33" d="M2571.7,1878.5c-199.2,0-361.3-162.1-361.3-361.3s162.1-361.3,361.3-361.3,361.3,162.1,361.3,361.3-162.1,361.3-361.3,361.3ZM2571.7,1171.2c-190.8,0-346,155.2-346,346s155.2,346,346,346,346-155.2,346-346-155.2-346-346-346Z"/>
    <g>
      <text class="st39" transform="translate(2383.6 1543.6) scale(1.1 1)"><tspan x="0" y="0">JOMA</tspan></text>
      <text class="st32" transform="translate(2488 1616.5)"><tspan x="0" y="0">TECH</tspan></text>
    </g>
  </g>
  <g>
    <circle class="st57" cx="1886.7" cy="70" r="358.2"/>
    <path class="st33" d="M1886.7,402.9c-183.5,0-332.9-149.3-332.9-332.9s149.3-332.9,332.9-332.9,332.9,149.3,332.9,332.9-149.3,332.9-332.9,332.9ZM1886.7-248.7c-175.7,0-318.7,143-318.7,318.7s143,318.7,318.7,318.7,318.7-143,318.7-318.7-143-318.7-318.7-318.7Z"/>
    <g>
      <text class="st34" transform="translate(1713.4 94.4) scale(1.1 1)"><tspan x="0" y="0">JOMA</tspan></text>
      <text class="st31" transform="translate(1809.6 161.6)"><tspan x="0" y="0">TECH</tspan></text>
    </g>
  </g>
  <g>
    <circle class="st53" cx="3791.2" cy="290.2" r="162.3"/>
    <path class="st33" d="M3791.2,443.6c-84.6,0-153.4-68.8-153.4-153.4s68.8-153.4,153.4-153.4,153.4,68.8,153.4,153.4-68.8,153.4-153.4,153.4ZM3791.2,143.3c-81,0-146.9,65.9-146.9,146.9s65.9,146.9,146.9,146.9,146.9-65.9,146.9-146.9-65.9-146.9-146.9-146.9Z"/>
    <text class="st36" transform="translate(3714.5 302.7) scale(1 1)"><tspan x="0" y="0">JOMA</tspan></text>
    <text class="st29" transform="translate(3756.5 341)"><tspan x="0" y="0">TECH</tspan></text>
  </g>
  <circle class="st53" cx="4141.3" cy="200.2" r="162.3"/>
  <path class="st33" d="M4141.3,353.6c-84.6,0-153.4-68.8-153.4-153.4s68.8-153.4,153.4-153.4,153.4,68.8,153.4,153.4-68.8,153.4-153.4,153.4ZM4141.3,53.3c-81,0-146.9,65.9-146.9,146.9s65.9,146.9,146.9,146.9,146.9-65.9,146.9-146.9-65.9-146.9-146.9-146.9Z"/>
  <text class="st29" transform="translate(4106.4 251)"><tspan x="0" y="0">TECH</tspan></text>
  <circle class="st17" cx="3682.3" cy="775.2" r="162.3"/>
  <path class="st33" d="M3682.3,928.6c-84.6,0-153.4-68.8-153.4-153.4s68.8-153.4,153.4-153.4,153.4,68.8,153.4,153.4-68.8,153.4-153.4,153.4ZM3682.3,628.3c-81,0-146.9,65.9-146.9,146.9s65.9,146.9,146.9,146.9,146.9-65.9,146.9-146.9-65.9-146.9-146.9-146.9Z"/>
  <text class="st35" transform="translate(3564.8 801.7) scale(1.1 1)"><tspan x="0" y="0">JOMA</tspan></text>
  <text class="st29" transform="translate(3647.7 840)"><tspan x="0" y="0">TECH</tspan></text>
  <path class="st51" d="M2500.3,301.3l103.1-202.5c3.1-6.1,11.8-6.1,14.9,0l103.1,202.5c2.8,5.6-1.2,12.2-7.5,12.2h-206.1c-6.2,0-10.3-6.6-7.5-12.2Z"/>
  <text class="st38" transform="translate(2529.1 296.7) scale(1.1 1)"><tspan x="0" y="0">JOMA</tspan></text>
  <g>
    <path class="st19" d="M1305.5,1558.7c-30.4,30-47.3,70-47.6,112.6-.3,42.7,16,82.9,46,113.3,17.7,17.9,38.8,31.2,62,39.1,5.7,1.9,11.5,3.5,17.4,4.8v-17.9c.1,0,.5-63.2.5-63.2-6.1-2.5-11.9-5.6-17.3-9.3l-.3,67c-18.2-7.1-35.2-18-49.7-32.7-55.1-55.9-54.4-146.3,1.5-201.4,15.4-15.2,33.4-26.1,52.5-32.8l10.9-21.4c-28.3,6.6-54.4,20.9-75.6,41.8Z"/>
    <path class="st19" d="M1531.5,1560.4c-21.5-21.8-48.1-36.7-77.2-43.5l10.9,21.4c19.8,7,38.3,18.4,54,34.3,55.1,55.9,54.4,146.3-1.5,201.4-12.1,11.9-25.8,21.2-40.4,27.9l.4-70.4c-5.3,4.7-11.2,8.8-17.5,12.1l-.3,64.9v18.2c5.8-1.6,11.6-3.5,17.3-5.8,19.5-7.8,37.4-19.5,52.8-34.6,30.4-30,47.3-70,47.6-112.6.3-42.7-16-82.9-46-113.3Z"/>
    <path class="st19" d="M1412.8,1754l-.3,60.8-.8,57.3c5.9-1.8,11.8-4,17.4-6.6l.8-51.1.3-61.1c-4.1.6-8.3.9-12.6.9s-3.2,0-4.8-.1Z"/>
    <path class="st19" d="M1454.2,1516.9l-29.1-57.2c-3.1-6.1-11.8-6.1-14.9,0l-29.1,57.2c12.2-2.8,24.9-4.3,37.7-4.2,12.1,0,23.9,1.5,35.4,4.2Z"/>
    <path class="st19" d="M1388.3,1639.8c-3.4,0-4.1,2.5-4.1,5.3v.6c0,2.7.7,5.2,4.1,5.2s4.1-2.5,4.1-5.2v-.6c0-2.7-.7-5.3-4.1-5.3Z"/>
    <path class="st19" d="M1370.2,1538.3l-63.1,124c-2.8,5.6,1.2,12.2,7.5,12.2h206.1c6.2,0,10.3-6.6,7.5-12.2l-63.1-124c-30.6-10.8-64.2-10.8-94.9,0ZM1366.9,1647.6c0,6.8-5.4,11-15.3,11s-11.5-1.4-16-3.9l4.1-7.3c3.1,1.3,6.1,2.3,9.1,2.3s3.5-1,3.5-3v-13.6h14.6v14.5ZM1407.2,1645.6c0,7.1-7,13.1-18.9,13.1s-18.9-5.9-18.9-13.1v-.4c0-7.2,7-13,18.9-13s18.9,5.8,18.9,13v.4ZM1472.2,1633.1h15l12.5,24.6h-15.1l-1.6-4.3h-8.5l-1.9,4.3h-12.7l12.3-24.6ZM1434.2,1642.7l.7,2,.7-2,3.8-9.7h19.8v24.6h-13.9v-13.3l-1.2,3-4.1,10.2h-12.5l-4-10.2-1.2-3v13.3h-12.4v-24.6h20.5l3.8,9.7Z"/>
    <polygon class="st19" points="1479.1 1643.2 1477 1647.8 1480.9 1647.8 1479.1 1643.2"/>
  </g>
  <text class="st8" transform="translate(2922.5 841.1)"><tspan x="0" y="0">TECH</tspan></text>
  <path class="st51" d="M2853.3,799.8l103.1-202.5c3.1-6.1,11.8-6.1,14.9,0l103.1,202.5c2.8,5.6-1.2,12.2-7.5,12.2h-206.1c-6.2,0-10.3-6.6-7.5-12.2Z"/>
  <text class="st30" transform="translate(2879.9 792.3) scale(1.1 1)"><tspan x="0" y="0">JOMA</tspan></text>
  <g>
    <path class="st5" d="M2724.6,644.3c-30-30.4-70-47.3-112.6-47.6s-82.9,16-113.3,46c-30.4,30-47.3,70-47.6,112.6s16,82.9,46,113.3c17.7,17.9,38.8,31.2,62,39.1v-18.6c-18-7.1-35-18-49.6-32.7-55.1-55.9-54.4-146.3,1.5-201.4,55.9-55.1,146.3-54.4,201.4,1.5,55.1,55.9,54.4,146.3-1.5,201.4-12.1,11.9-25.8,21.2-40.4,27.9v19.1c19.3-7.8,37.3-19.5,52.7-34.6,30.4-30,47.3-70,47.6-112.6.3-42.7-16-82.9-46-113.3Z"/>
    <path class="st5" d="M2559.5,822.1l-.3,67c5.7,2.2,11.5,4,17.4,5.5l.3-63.2c-6.1-2.5-11.9-5.6-17.3-9.3Z"/>
    <path class="st5" d="M2559,907.7c5.7,1.9,11.5,3.5,17.4,4.8v-17.9c-5.7-1.4-11.5-3.3-17.2-5.5v18.6Z"/>
    <path class="st5" d="M2670.7,815.5c-5.3,4.7-11.2,8.8-17.5,12.1l-.3,64.9c5.9-1.8,11.8-4,17.4-6.6l.4-70.4Z"/>
    <path class="st5" d="M2605.7,898.7l-.8,57.3c5.9-1.8,11.8-4,17.4-6.6l.8-51.1c-5.8.5-11.6.6-17.4.4Z"/>
    <path class="st5" d="M2610.8,838.1c-1.6,0-3.2,0-4.8-.1l-.3,60.8c5.8.2,11.6,0,17.4-.4l.3-61.1c-4.1.6-8.3.9-12.6.9Z"/>
    <path class="st5" d="M2652.9,892.5v18.2c5.8-1.6,11.6-3.5,17.3-5.8v-19.1c-5.6,2.6-11.4,4.8-17.3,6.6Z"/>
  </g>
  <text class="st3" transform="translate(2563.9 789.2)"><tspan x="0" y="0">TECH</tspan></text>
  <text class="st4" transform="translate(2532.9 755.4) scale(1 1)"><tspan x="0" y="0">JOMA</tspan></text>
  <text class="st37" transform="translate(3997.4 213.7) scale(1.1 1)"><tspan x="0" y="0">Joma</tspan></text>
  <g>
    <path class="st51" d="M2908.4,847.2l-.3,67c5.7,2.2,11.5,4,17.4,5.5l.3-63.2c-6.1-2.5-11.9-5.6-17.3-9.3Z"/>
    <path class="st51" d="M3019.6,840.5c-5.3,4.7-11.2,8.8-17.5,12.1l-.3,64.9c5.9-1.8,11.8-4,17.4-6.6l.4-70.4Z"/>
    <path class="st51" d="M2959.7,863.1c-1.6,0-3.2,0-4.8-.1l-.3,107.8c5.8.2,11.6,0,17.4-.4l.3-108.1c-4.1.6-8.3.9-12.6.9Z"/>
  </g>
  <text class="st8" transform="translate(3266.5 843.1)"><tspan x="0" y="0">TECH</tspan></text>
  <path class="st51" d="M3197.3,799.8l103.1-202.5c3.1-6.1,11.8-6.1,14.9,0l103.1,202.5c2.8,5.6-1.2,12.2-7.5,12.2h-206.1c-6.2,0-10.3-6.6-7.5-12.2Z"/>
  <text class="st30" transform="translate(3223.9 792.3) scale(1.1 1)"><tspan x="0" y="0">JOMA</tspan></text>
  <g>
    <g>
      <path class="st33" d="M3288.3,714.7l-8.7,6.1c.2.9.5,1.8.9,2.7l8.2-5.8c-.2-1-.4-2.1-.4-3.1Z"/>
      <path class="st33" d="M3299.4,728.4c-1.1-.3-2.2-.6-3.2-1.1l-8.4,5.9c.8.6,1.6,1.1,2.5,1.6l9.1-6.4Z"/>
      <path class="st33" d="M3291,722.8c-.1-.2-.3-.4-.4-.6l-13.9,9.9c.5.8,1.1,1.5,1.7,2.2l13.9-9.9c-.5-.5-.9-1-1.3-1.5Z"/>
    </g>
    <g>
      <path class="st33" d="M3305.1,728.2c.2-1.3.4-2.5.6-3.6.4-2.2.8-4.5,1.1-6.7,0-.2-.1-.5-.2-.8l-1.3,1-4.3-5.8,1.2-.9c-.2-.4-.3-.6-.7-.6-3.2-.4-6.5-.8-9.7-1.2-.2,0-.4,0-.7,0,.2-.1.2-.2.3-.3,3.2-2.3,6.3-4.7,9.5-7,.2-.1.4-.2.6-.2,2.9,0,5.9,0,8.8-.2.2,0,.4,0,.5-.2,2.9-3.1,6.2-5.7,9.9-7.9,2.5-1.5,5.2-2.8,8.1-3.5,2.3-.6,4.6-1.1,6.9-1.3.4,0,.9,0,1.3,0,1,.1,1.4.8,1.2,1.8-.3,1-.6,1.9-1.1,2.8-.8,1.6-1.7,3.1-2.6,4.6-1,1.7-2.3,3.2-3.6,4.7-2.3,2.4-4.8,4.6-7.7,6.4-1.6,1-3.4,1.9-5.1,2.9-.2,0-.3.3-.4.4-.9,2.7-1.7,5.3-2.6,8,0,.1-.1.3-.2.3-3.2,2.4-6.5,4.8-9.7,7.2,0,0,0,0-.2,0ZM3327.9,697c-.9-1.3-2.7-1.5-3.9-.6-1.3.9-1.5,2.7-.6,3.9.9,1.2,2.7,1.5,3.9.6,1.2-.9,1.5-2.7.6-3.9ZM3316.1,705.7c.9,1.3,2.7,1.5,3.9.7,1.2-.9,1.5-2.7.6-3.9-.9-1.2-2.6-1.5-3.9-.6-1.3.9-1.6,2.6-.7,3.9Z"/>
      <rect class="st33" x="3317.9" y="691.4" width="7.4" height="21.3" transform="translate(1913 -2386.9) rotate(53.6)"/>
    </g>
  </g>
  <g>
    <g>
      <path class="st33" d="M3663.2,694.7l-8.7,6.1c.2.9.5,1.8.9,2.7l8.2-5.8c-.2-1-.4-2.1-.4-3.1Z"/>
      <path class="st33" d="M3674.2,708.4c-1.1-.3-2.2-.6-3.2-1.1l-8.4,5.9c.8.6,1.6,1.1,2.5,1.6l9.1-6.4Z"/>
      <path class="st33" d="M3665.8,702.8c-.1-.2-.3-.4-.4-.6l-13.9,9.9c.5.8,1.1,1.5,1.7,2.2l13.9-9.9c-.5-.5-.9-1-1.3-1.5Z"/>
    </g>
    <g>
      <path class="st33" d="M3679.9,708.2c.2-1.3.4-2.5.6-3.6.4-2.2.8-4.5,1.1-6.7,0-.2-.1-.5-.2-.8l-1.3,1-4.3-5.8,1.2-.9c-.2-.4-.3-.6-.7-.6-3.2-.4-6.5-.8-9.7-1.2-.2,0-.4,0-.7,0,.2-.1.2-.2.3-.3,3.2-2.3,6.3-4.7,9.5-7,.2-.1.4-.2.6-.2,2.9,0,5.9,0,8.8-.2.2,0,.4,0,.5-.2,2.9-3.1,6.2-5.7,9.9-7.9,2.5-1.5,5.2-2.8,8.1-3.5,2.3-.6,4.6-1.1,6.9-1.3.4,0,.9,0,1.3,0,1,.1,1.4.8,1.2,1.8-.3,1-.6,1.9-1.1,2.8-.8,1.6-1.7,3.1-2.6,4.6-1,1.7-2.3,3.2-3.6,4.7-2.3,2.4-4.8,4.6-7.7,6.4-1.6,1-3.4,1.9-5.1,2.9-.2,0-.3.3-.4.4-.9,2.7-1.7,5.3-2.6,8,0,.1-.1.3-.2.3-3.2,2.4-6.5,4.8-9.7,7.2,0,0,0,0-.2,0ZM3702.8,677c-.9-1.3-2.7-1.5-3.9-.6-1.3.9-1.5,2.7-.6,3.9.9,1.2,2.7,1.5,3.9.6,1.2-.9,1.5-2.7.6-3.9ZM3690.9,685.7c.9,1.3,2.7,1.5,3.9.7,1.2-.9,1.5-2.7.6-3.9-.9-1.2-2.6-1.5-3.9-.6-1.3.9-1.6,2.6-.7,3.9Z"/>
      <rect class="st33" x="3692.7" y="671.4" width="7.4" height="21.3" transform="translate(2049 -2696.5) rotate(53.6)"/>
    </g>
  </g>
  <g>
    <path class="st51" d="M3952.2,497c0,15-9.7,32.7-26.5,32.7-14.3,0-26.3-11.9-26.7-26.2-.4-15.3,11.7-29.7,26.4-33.2,17.3-4.1,26.8,11.1,26.9,26.7ZM3938.4,498.4c0-11.6-5-17.9-13-16.4-8,1.5-12.9,9-12.9,19.4,0,10.5,5,16.8,13.1,16.4,8-.4,12.9-7.7,12.8-19.4Z"/>
    <path class="st51" d="M3983.3,528.6c-.4-2.8-1.2-5.8-3-11.9-2.6-8.5-3.8-12.5-6.3-20.7,0-.4-2.1-7.5-2.3-8.1q-.7-2.7-1.1-3.8c.4,4.8.7,11.2.8,15.3,0,6.7,0,10.1.1,16.8,0,5.3.2,8.8.6,12-5.2,0-7.8,0-13.1,0,.4-3.4.5-6.6.4-11.7,0-13.1-.2-26.3-.3-39.4,0-4.5-.3-8.5-.6-11.7,7-1,10.5-1.4,17.6-2.1.5,3.3,1,5.7,2.6,10.9,3.6,11.6,7.2,23.3,10.8,35,3.6-10.6,7.3-21.1,11.1-31.6,1.8-4.9,2.4-7.2,2.8-10.5,8.2,2.5,12.5,4.2,21,7.5-.5,3.7-.6,6.9-.6,12.3,0,14,0,27.9,0,41.9,0,6.1.2,9.3.6,12.7-6.2-2.4-9.4-3.7-15.5-5.9.5-3.5.6-6.5.6-12.2,0-7,0-10.5,0-17.5,0-1.9.2-7.9.4-10.3.2-4.2.2-4.2.3-5.4-1.7,5.7-2.5,8.3-3.5,10.8-3,7.8-4.5,11.7-7.4,19.6-1.9,5.1-2.8,8.3-3.2,10.8-5.2-1.5-7.8-2.1-12.6-2.6Z"/>
    <path class="st51" d="M4074.8,552.3c-.5-3.6-.9-5.6-1.5-8.2-.7-2.6-1-4-1.7-6.7-7.6-.2-11.3-.3-19.7-2.3-.8,2.5-1.2,3.8-2,6.3-1,2.9-1.5,5.3-1.9,8.1-7-1.9-10.7-3.3-18-6,1.2-2,1.9-3.6,3.8-8.4,5.7-14.2,11.2-28.4,16.7-42.6,1.4-3.5,2-5.7,2.4-7.9,7.7,2.2,11.1,3.1,18.1,2.7.5,2.2.9,4.1,2.2,8,5,15.8,9.5,31.8,14.1,47.8,1.2,4.3,2.3,7.4,3.1,9.4-6.2,0-9.3,0-15.5,0ZM4062.1,500.1c-2.6,9.1-4,13.5-6.7,22.5,5.4,1.2,7.9,1.4,12.9,1.5-2.5-9.5-3.7-14.2-6.3-24Z"/>
    <path class="st51" d="M4128.3,552.4c-.4-2.4-1.2-5.5-3.2-14-2.1-8.9-2.9-11.8-4.5-14.1-1.4-2-3-2.7-5.1-2.4-2.7.4-4,.6-6.7,1.1,0,6.9,0,10.4,0,16.5,0,6.4,0,9.4.4,12.9-5.7,0-8.5,0-14.2,0,.4-3.4.6-5.6.6-12.1.1-16.6.2-33.3.3-49.9,0-5.3,0-8.2-.4-11.5,2.9-1.3,5.4-2.6,9.9-4.9,6.9-3.6,10.3-5.5,17.1-7.9,12.5-5.1,17.1,9.9,16.7,19.1-.3,7.7-1.3,15.1-3.9,19.8-1.6,2.9-3,4.3-6.3,6.5,3.4,1.7,4.9,4.7,7,13.2,1,3.9,1.9,8.8,4.9,19.2.7,2.7,1.5,5.2,3.2,8.7-6.2-.1-9.3-.1-15.5-.2ZM4119.2,501.6c3.9-1,6.3-5.7,6.3-12.2,0-6.3-2.1-8.8-6.1-7.3-4.1,1.5-6.2,2.4-10.3,4.3,0,6.8,0,10.6,0,18.2,4.1-1.3,6.2-1.9,10.3-3Z"/>
  </g>
  <g>
    <path class="st51" d="M3957.4,563c-.5,0-.8,0-1.3,0-.1-4.7-1.4-11.1-1.8-16.8-1.5,0-2.2,0-3.6.3,0-.6,0-.9,0-1.4,3.2-1,5.1-.5,8.8.4,0,.6,0,.9,0,1.5-1.6-.4-2.3-.6-3.9-.8.4,5.8,1.6,11.9,1.7,16.7Z"/>
    <path class="st51" d="M3976.6,563c-2.4,0-3.7,0-6.1,0,0-5.7-.2-9.2-.2-14.9,2.6.2,3.8-.2,6.2-.3,0,.6,0,.9,0,1.6-1.9.1-2.9.3-4.9.3,0,1.9,0,2.9,0,4.8,1.9,0,2.7-.1,4.6-.2,0,.6,0,.9,0,1.6-1.8,0-2.7.1-4.6.2,0,2.2,0,3.3,0,5.5,1.9,0,2.9,0,4.8,0,0,.6,0,.9,0,1.6Z"/>
    <path class="st51" d="M3991.7,549.3c-1.2,0-2.2.4-2.9,1.5-.7,1.1-1.1,2.6-1.1,4.5,0,2,.3,3.5,1,4.6.7,1.1,1.6,1.6,2.9,1.6.8,0,1.6-.2,2.6-.5,0,.6,0,.9,0,1.5-.8.4-1.7.6-2.8.6-1.6,0-2.9-.7-3.7-2-.9-1.4-1.3-3.3-1.3-5.8,0-1.6.2-3,.6-4.1.4-1.2,1-2.1,1.9-2.6s1.8-.8,2.8-.7c1.2.1,2.2.5,3,1.2-.2.6-.3.8-.6,1.4-.8-.6-1.7-.9-2.5-1Z"/>
    <path class="st51" d="M4012.9,563c-.5,0-.8,0-1.3,0,0-2.1,0-3.2,0-5.3-2.3-.3-3.4-.5-5.7-.7,0,2.4,0,3.6,0,6-.5,0-.8,0-1.3,0,0-5.2,0-7.8.1-13,.5.1.8.2,1.3.3,0,2.2,0,3.3,0,5.4,2.3.3,3.4.5,5.7.9,0-1.9,0-2.9,0-4.8.5.1.7.2,1.2.4,0,4.4,0,6.6,0,10.9Z"/>
  </g>
  <text class="st50" transform="translate(3957.8 846.4) scale(1.1 1)"><tspan x="0" y="0">JOMA</tspan></text>
  <text class="st42" transform="translate(4035.9 875.3)"><tspan x="0" y="0">TECH</tspan></text>
  <line class="st2" x1="3925.8" y1="811.4" x2="4237.2" y2="811.4"/>
  <text class="st6" transform="translate(4047 740.1)"><tspan x="0" y="0">TECH</tspan></text>
  <g>
    <polygon class="st0" points="4089.1 687.6 4084 687.6 4086.5 693.8 4089.1 687.6"/>
    <path class="st0" d="M4040.8,685c-2.1,0-3.7.9-5,2.6h9.2c-1.2-1.7-2.6-2.6-4.2-2.6Z"/>
    <path class="st0" d="M4033.2,699.1c0,4.4.6,7.9,1.9,10.5,1.3,2.5,3,3.8,5.3,3.8s4-1.3,5.3-3.9c1.3-2.6,2-6.1,2-10.4s-.7-8-2-10.4c-.2-.4-.4-.7-.6-1h-9.2c-.3.4-.5.7-.7,1.2-1.3,2.5-2,6-2,10.3Z"/>
    <polygon class="st0" points="4127.7 705 4134.4 705 4131.1 688.7 4127.7 705"/>
    <path class="st51" d="M4002.3,710.1c0,1.3-.3,2.3-.8,3-.5.7-1.3,1-2.3,1s-1.4-.3-2.2-.8v9.4c2,.5,4.1.7,6.3.7,4,0,7-1,8.7-3.1,1.8-2.1,2.7-5.2,2.7-9.3v-23.3h-12.5v22.5Z"/>
    <rect class="st27" x="4002.3" y="672.5" width="12.5" height="11.7"/>
    <path class="st51" d="M4045.7,688.6c1.3,2.4,2,5.9,2,10.4s-.7,7.8-2,10.4c-1.3,2.6-3.1,3.9-5.3,3.9s-4-1.3-5.3-3.8c-1.3-2.5-1.9-6-1.9-10.5s.7-7.8,2-10.3c.2-.4.5-.8.7-1.2h-12.9c-1.4,3.5-2.1,7.4-2.1,11.8,0,6.8,1.7,12.5,5,17.1s8.1,6.9,14.2,6.9,10.7-2.2,14.4-6.6c3.7-4.4,5.6-10.3,5.6-17.7s-.7-8.1-1.9-11.4h-13.1c.2.3.4.6.6,1Z"/>
    <path class="st27" d="M4039.5,671.7c-3.2,0-6.3,1-9.3,2.9-3,2-5.3,4.8-6.9,8.6-.1.3-.3.6-.4,1h12.9c1.3-1.7,2.9-2.6,5-2.6s3,.9,4.2,2.6h13.1c-.9-2.3-2.1-4.3-3.6-6.1-3.7-4.3-8.7-6.4-15.1-6.4Z"/>
    <polygon class="st27" points="4093.9 672.5 4089.1 684.2 4107.4 684.2 4107.4 672.5 4093.9 672.5"/>
    <polygon class="st27" points="4079.1 672.5 4065.6 672.5 4065.6 684.2 4084 684.2 4079.1 672.5"/>
    <path class="st51" d="M4086.5,693.8l-2.6-6.2h-18.3v35h12v-17.5c0-4.8-.2-9.2-.6-13.5h.9c.5,2.2,1.6,5.3,3.1,9.3l5.4,13.6,5.4-13.6c1.6-4,2.6-7.1,3.1-9.3h.9c-.4,4.6-.6,9-.6,13.5v17.5h12v-35h-18.3l-2.6,6.2Z"/>
    <path class="st51" d="M4121.8,687.6l-10.3,35h12.6l1.9-9.3h10.1l1.9,9.3h13.4l-10.4-35h-19.2ZM4127.7,705l3.4-16.3,3.3,16.3h-6.7Z"/>
    <polygon class="st27" points="4137.4 672.5 4125.2 672.5 4121.8 684.2 4140.9 684.2 4137.4 672.5"/>
  </g>
  <text class="st18" transform="translate(3142.4 1363) scale(1.1 1)"><tspan x="0" y="0">JOM</tspan></text>
  <text class="st20" transform="translate(303.5 1774) scale(1.1 1)"><tspan x="0" y="0">JOM</tspan></text>
  <g>
    <path class="st19" d="M385.2,2169.3c-9.6,0-18.8-.8-27.4-2.5v-36.3c2.9.5,5.9,1,9.1,1.6,3.2.6,6.7.9,10.4.9,8.7,0,15-2.3,18.7-7,3.7-4.7,5.6-12.6,5.6-23.9v-160.2h53.1v156.1c0,23.4-5.8,41.2-17.4,53.2-11.6,12-29,18.1-52.2,18.1Z"/>
    <path class="st19" d="M680.2,2028.2c0,29.1-8.1,51.3-24.2,66.4-16.1,15.2-39.8,22.7-70.9,22.7s-54.2-7.6-70.6-22.8c-16.4-15.2-24.6-37.4-24.6-66.5s8.1-50.8,24.4-66c16.3-15.2,39.9-22.8,71-22.8s54.7,7.5,70.8,22.6c16.1,15.1,24.1,37.2,24.1,66.4ZM545.5,2028.2c0,33.5,13.2,50.2,39.5,50.2s23.3-4.1,29.8-12.2c6.5-8.1,9.7-20.8,9.7-38s-3.3-30-9.8-38.3c-6.6-8.2-16.3-12.4-29.4-12.4-26.5,0-39.7,16.9-39.7,50.7Z"/>
    <path class="st19" d="M800.7,2115l-40-124.7h-1.2c1.9,21.2,2.8,37.7,2.8,49.5v75.2h-46.8v-173.1h70.4l40.8,122.9h1.1l40-122.9h70.5v173.1h-48.6v-75.9c0-3.9,0-8.3.2-13.1.1-4.8.7-16.6,1.8-35.4h-1.2l-39.5,124.4h-50.3Z"/>
  </g>
  <polygon class="st33" points="3656.9 1174 3533.5 1380 3769.5 1380 3656.9 1174"/>
  <g>
    <g>
      <polygon class="st19" points="3554.4 1363 3622.4 1247.9 3632.7 1266.6 3575.5 1363 3554.4 1363"/>
      <polygon class="st19" points="3608.6 1363 3587.4 1363 3638.6 1276.8 3649.4 1294.7 3608.6 1363"/>
    </g>
    <g>
      <polygon class="st16" points="3751.4 1363 3619 1363 3631.4 1342.6 3742.6 1342.3 3751.4 1363"/>
      <polygon class="st13" points="3726.4 1314.1 3736.6 1332.2 3637.4 1332.5 3648.2 1314.5 3726.4 1314.1"/>
    </g>
    <g>
      <polygon class="st19" points="3656.8 1191.3 3723.3 1302.8 3701.6 1302.7 3645.8 1208.9 3656.8 1191.3"/>
      <polygon class="st19" points="3628.9 1236.6 3639.8 1218.9 3689.6 1302.6 3668.2 1302.5 3628.9 1236.6"/>
    </g>
  </g>
  <text class="st18" transform="translate(3142.4 1729) scale(1.1 1)"><tspan x="0" y="0">JOM</tspan></text>
  <g>
    <text class="st26" transform="translate(3596.3 1731.4) scale(1.1 1)"><tspan x="0" y="0">A</tspan></text>
    <g>
      <path class="st19" d="M3719.4,1671l-9.7-35c-2.3-7.8-5-17.9-8.3-30.2-3.2-12.4-5.4-21.2-6.4-26.6-.9,5-2.7,13.1-5.5,24.5-2.7,11.4-8.8,33.8-18.1,67.3h47.9Z"/>
      <polygon class="st19" points="3667.9 1698.7 3723.4 1698.7 3731.8 1729 3659.2 1729 3667.9 1698.7"/>
      <g>
        <line class="st0" x1="3708.6" y1="1744" x2="3708.6" y2="1683"/>
        <line class="st0" x1="3682.4" y1="1744" x2="3682.4" y2="1683"/>
      </g>
    </g>
  </g>
  <text class="st21" transform="translate(3249.4 1774.3) scale(1.1 1)"><tspan x="0" y="0">TECH</tspan></text>
  <g>
    <path class="st15" d="M1434.2,1181.3c-9.6,0-18.8-.8-27.4-2.5v-36.3c2.9.5,5.9,1,9.1,1.6,3.2.6,6.7.9,10.4.9,8.7,0,15-2.3,18.7-7,3.7-4.7,5.6-12.6,5.6-23.9v-160.2h53.1v156.1c0,23.4-5.8,41.2-17.4,53.2-11.6,12-29,18.1-52.2,18.1Z"/>
    <path class="st14" d="M1707.1,1040.2c0,29.1-8.1,51.3-24.2,66.4-16.1,15.2-39.8,22.7-70.9,22.7s-54.2-7.6-70.6-22.8c-16.4-15.2-24.6-37.4-24.6-66.5s8.1-50.8,24.4-66c16.3-15.2,39.9-22.8,71-22.8s54.7,7.5,70.8,22.6c16.1,15.1,24.1,37.2,24.1,66.4ZM1572.5,1040.2c0,33.5,13.2,50.2,39.5,50.2s23.3-4.1,29.8-12.2c6.5-8.1,9.7-20.8,9.7-38s-3.3-30-9.8-38.3c-6.6-8.2-16.3-12.4-29.4-12.4-26.5,0-39.7,16.9-39.7,50.7Z"/>
    <path class="st11" d="M1805.8,1127l-40-124.7h-1.2c1.9,21.2,2.8,37.7,2.8,49.5v75.2h-46.8v-173.1h70.4l40.8,122.9h1.1l40-122.9h70.5v173.1h-48.6v-75.9c0-3.9,0-8.3.2-13.1.1-4.8.7-16.6,1.8-35.4h-1.2l-39.5,124.4h-50.3Z"/>
    <path class="st47" d="M2083.6,1127l-9.6-32.4h-63.6l-9.9,32.4h-58.1l63.8-173.8h70.5l64.6,173.8h-57.8ZM2063,1056.2l-8.4-28.4c-2-6.3-4.3-14.5-7.2-24.5-2.8-10-4.7-17.2-5.6-21.5-.8,4-2.4,10.7-4.8,19.9-2.4,9.2-7.6,27.4-15.7,54.6h41.6Z"/>
  </g>
  <text class="st24" transform="translate(1533.3 1180.3) scale(1.1 1)"><tspan x="0" y="0">TECH</tspan></text>
  <g>
    <path class="st46" d="M1434.2,768.3c-9.6,0-18.8-.8-27.4-2.5v-36.3c2.9.5,5.9,1,9.1,1.6,3.2.6,6.7.9,10.4.9,8.7,0,15-2.3,18.7-7,3.7-4.7,5.6-12.6,5.6-23.9v-160.2h53.1v156.1c0,23.4-5.8,41.2-17.4,53.2-11.6,12-29,18.1-52.2,18.1Z"/>
    <path class="st44" d="M1707.1,627.2c0,29.1-8.1,51.3-24.2,66.4-16.1,15.2-39.8,22.7-70.9,22.7s-54.2-7.6-70.6-22.8c-16.4-15.2-24.6-37.4-24.6-66.5s8.1-50.8,24.4-66c16.3-15.2,39.9-22.8,71-22.8s54.7,7.5,70.8,22.6c16.1,15.1,24.1,37.2,24.1,66.4ZM1572.5,627.2c0,33.5,13.2,50.2,39.5,50.2s23.3-4.1,29.8-12.2c6.5-8.1,9.7-20.8,9.7-38s-3.3-30-9.8-38.3c-6.6-8.2-16.3-12.4-29.4-12.4-26.5,0-39.7,16.9-39.7,50.7Z"/>
    <path class="st43" d="M1805.8,714l-40-124.7h-1.2c1.9,21.2,2.8,37.7,2.8,49.5v75.2h-46.8v-173.1h70.4l40.8,122.9h1.1l40-122.9h70.5v173.1h-48.6v-75.9c0-3.9,0-8.3.2-13.1.1-4.8.7-16.6,1.8-35.4h-1.2l-39.5,124.4h-50.3Z"/>
    <path class="st48" d="M2083.6,714l-9.6-32.4h-63.6l-9.9,32.4h-58.1l63.8-173.8h70.5l64.6,173.8h-57.8ZM2063,643.2l-8.4-28.4c-2-6.3-4.3-14.5-7.2-24.5-2.8-10-4.7-17.2-5.6-21.5-.8,4-2.4,10.7-4.8,19.9-2.4,9.2-7.6,27.4-15.7,54.6h41.6Z"/>
  </g>
  <text class="st24" transform="translate(1533.3 767.3) scale(1.1 1)"><tspan x="0" y="0">TECH</tspan></text>
  <text class="st25" transform="translate(1375.8 1719.2)"><tspan x="0" y="0">TECH</tspan></text>
  <polygon class="st0" points="4562.5 1065.2 4554.2 1085.1 4537.5 1115.6 4531.8 1120 4570.9 1120 4579.5 1101 4570.7 1085.1 4562.5 1065.2"/>
  <g>
    <path class="st19" d="M3847.4,1129.9c0,27.2-19.2,34.4-39.2,34.4s-35.4-9.9-44.7-23.8l-35.6,31.5c20.3,22.3,45.2,33.9,80,33.9s92.9-20.1,92.9-77.3v-121.5h-53.4v122.7Z"/>
    <path class="st19" d="M4034.8,1004.8c-77,0-117.6,43.9-117.6,101.6s40.6,99.6,117.6,99.6,117.8-41.2,117.8-99.6-40.3-101.6-117.8-101.6ZM4035.1,1164.4c-44.9,0-63.6-23.3-63.6-57.9s18.6-59.9,63.6-59.9,63.3,25.2,63.3,59.9-18.1,57.9-63.3,57.9Z"/>
    <polygon class="st19" points="4301.2 1111.8 4293.2 1129 4292.7 1129 4284.2 1111.8 4214.3 1007.3 4170.4 1007.3 4170.4 1203.9 4223.9 1203.9 4223.9 1099.6 4224.4 1099.6 4235.1 1120.2 4292.7 1206.3 4293.5 1206.3 4351 1120.2 4361.7 1099.6 4362.3 1099.6 4362.3 1203.9 4415.7 1203.9 4415.7 1007.3 4371.3 1007.3 4301.2 1111.8"/>
    <polygon class="st19" points="4524.8 1120 4530.5 1115.6 4547.2 1085.1 4555.5 1065.2 4563.7 1085.1 4572.5 1101 4598.5 1043.6 4578.2 1007.3 4533 1007.3 4422.5 1203.6 4481.5 1203.6 4504.8 1161.2 4501.5 1156.9 4547.3 1156.9 4563.9 1120 4524.8 1120"/>
  </g>
  <g>
    <path class="st49" d="M4746.2,1023.5h-80.8l1.4,1.7v178.4h-19.2v-178.4l1.4-1.7h-20.9l7-16.2h111.2v16.2Z"/>
    <path class="st49" d="M4910.6,1203.6h-156.2v-196.4h156.2v16.2h-138.9l1.9,1.7v70.6l-1.9,1.5h125.8v16.5h-125.8l1.9,1.5v70.6l-1.9,1.7h138.9v16.2Z"/>
    <path class="st49" d="M5091.7,1045.3c-13.4-15-33.7-24.2-63.3-24.2-60.6,0-85.5,39.3-85.5,85.6s24.1,83.2,85.2,83.2,49.9-9,63.6-24l14.2,12.6c-17.5,17.5-43.6,27.6-77.8,27.6-69.6,0-105.2-39.3-105.2-99.4s37.5-101.8,105.5-101.8,60.6,10.2,78.1,27.6l-14.8,12.9Z"/>
    <path class="st49" d="M5292.9,1203.6h-19.2v-88.5l1.9-1.5h-140.9l1.9,1.5v88.5h-19.2v-196.4h19.2v88.5l-1.9,1.5h140.9l-1.9-1.5v-88.5h19.2v196.4Z"/>
  </g>
  <text class="st23" transform="translate(4484.6 1587.6) scale(1.1 1)"><tspan x="0" y="0">TECH</tspan></text>
  <path d="M4519,1244l4.3-10.3,4.4-10.3,8.8-20.6c5.9-13.7,11.8-27.4,17.8-41.1,6-13.7,12-27.3,18.1-41l18.3-40.9,18.5-40.8c6.2-13.6,12.4-27.2,18.7-40.7,6.2-13.6,12.6-27.1,18.9-40.6l9.6-20.3,4.8-10.1,4.9-10.1-4.3,10.3-4.4,10.3-8.8,20.6c-5.9,13.7-11.8,27.4-17.8,41.1-6,13.7-12,27.3-18.1,41l-18.3,40.9-18.5,40.8c-6.2,13.6-12.4,27.2-18.7,40.7-6.2,13.6-12.6,27.1-18.9,40.6l-9.6,20.3-4.8,10.1-4.9,10.1Z"/>
  <g>
    <path d="M4422.2,2041.7c0,57.2-43,77.3-88.8,77.3s-57.1-11.6-76.5-33.9l34.1-31.5c8.9,13.8,27,23.8,42.7,23.8s37.5-7.3,37.5-34.4v-122.7h51.1v121.5Z"/>
    <path d="M4550.3,2119.1c-73.6,0-112.4-41.2-112.4-99.6s38.8-101.6,112.4-101.6,112.7,43.6,112.7,101.6-40.1,99.6-112.7,99.6ZM4550.6,1959.5c-43,0-60.8,24.5-60.8,59.9s17.8,57.9,60.8,57.9,60.5-23.3,60.5-57.9-17.6-59.9-60.5-59.9Z"/>
    <path d="M4914.5,2116.9h-51.1v-104.3h-.5l-10.2,20.6-55,86.1h-.8l-55-86.1-10.2-20.6h-.5v104.3h-51.1v-196.6h41.9l66.8,104.5,8.1,17.2h.5l7.6-17.2,67.1-104.5h42.4v196.6Z"/>
    <path d="M5175,2116.6h-55.8l-22.8-42.4,3.1-4.4h-103l3.1,4.4-22.3,42.4h-56.3l105.6-196.4h43.2l105.1,196.4ZM5077.5,2033l-5.2-4.4-16.2-30.5-7.9-19.9-7.9,19.9-16,30.5-5.5,4.4h58.7Z"/>
  </g>
  <text class="st22" transform="translate(5840.1 507.6) scale(1.1 1)"><tspan x="0" y="0">JOMA</tspan></text>
  <rect class="st45" x="4241" y="2144.9" width="934" height="67.3"/>
  <text class="st7" transform="translate(4946.5 2195.8) scale(1.1 1)"><tspan x="0" y="0">TECH</tspan></text>
  <g>
    <path class="st33" d="M4422.2,2655.7c0,57.2-43,77.3-88.8,77.3s-57.1-11.6-76.5-33.9l34.1-31.5c8.9,13.8,27,23.8,42.7,23.8s37.5-7.3,37.5-34.4v-122.7h51.1v121.5Z"/>
    <path class="st33" d="M4550.3,2733.1c-73.6,0-112.4-41.2-112.4-99.6s38.8-101.6,112.4-101.6,112.7,43.6,112.7,101.6-40.1,99.6-112.7,99.6ZM4550.6,2573.5c-43,0-60.8,24.5-60.8,59.9s17.8,57.9,60.8,57.9,60.5-23.3,60.5-57.9-17.6-59.9-60.5-59.9Z"/>
    <path class="st33" d="M4914.5,2730.9h-51.1v-104.3h-.5l-10.2,20.6-55,86.1h-.8l-55-86.1-10.2-20.6h-.5v104.3h-51.1v-196.6h41.9l66.8,104.5,8.1,17.2h.5l7.6-17.2,67.1-104.5h42.4v196.6Z"/>
    <path class="st33" d="M5175,2730.6h-55.8l-22.8-42.4,3.1-4.4h-103l3.1,4.4-22.3,42.4h-56.3l105.6-196.4h43.2l105.1,196.4ZM5077.5,2647l-5.2-4.4-16.2-30.5-7.9-19.9-7.9,19.9-16,30.5-5.5,4.4h58.7Z"/>
  </g>
  <rect class="st53" x="4241" y="2758.9" width="934" height="67.3"/>
  <text class="st7" transform="translate(4946.5 2809.8) scale(1.1 1)"><tspan x="0" y="0">TECH</tspan></text>
  <g>
    <path d="M97.7-170.7c-4.2-4.2-9.1-7.5-14.7-9.9s-11.6-3.6-18-3.6-12.3,1.2-17.9,3.6-10.5,5.7-14.7,9.9-7.5,9.1-9.9,14.7c-2.4,5.6-3.6,11.6-3.6,17.9s1.2,12.4,3.6,18c2.4,5.6,5.7,10.5,9.9,14.7,4.2,4.2,9.1,7.5,14.7,9.9s11.6,3.6,17.9,3.6,12.4-1.2,18-3.6,10.5-5.7,14.7-9.9c4.2-4.2,7.5-9.1,9.9-14.7,2.4-5.6,3.6-11.6,3.6-18s-1.2-12.3-3.6-17.9c-2.4-5.6-5.7-10.5-9.9-14.7ZM91.9-126.5c-1.5,3.6-3.6,6.9-6.2,9.7s-5.7,5-9.2,6.7c-3.5,1.7-7.3,2.5-11.3,2.5s-7.8-.8-11.3-2.5c-3.5-1.7-6.6-3.9-9.2-6.7-2.6-2.8-4.7-6-6.2-9.7s-2.3-7.5-2.3-11.6.8-7.8,2.3-11.5c1.5-3.7,3.6-6.9,6.2-9.7,2.6-2.8,5.7-5,9.2-6.6,3.5-1.7,7.3-2.5,11.3-2.5s7.8.8,11.3,2.5c3.5,1.7,6.6,3.9,9.2,6.6,2.6,2.8,4.7,6,6.2,9.7,1.5,3.7,2.3,7.5,2.3,11.5s-.8,7.9-2.3,11.6Z"/>
    <polygon points="213.8 -182.4 212.7 -182.4 168.9 -131.1 125.3 -182.4 124.2 -182.4 124.2 -51.9 141.2 -51.9 141.2 -138.5 168.9 -105.1 196.8 -138.5 196.8 -100.5 213.8 -100.5 213.8 -182.4"/>
    <path d="M248.1-107.5h42l3.5,7h18.4l-41.9-82h-1.7l-41.9,82h18.3l3.4-7ZM269.1-149.2l12.6,26.9h-25.4l12.8-26.9Z"/>
    <path d="M421.1-51.9c-7.3-10.1-39.8-61.6-47.3-71.5,5.6-2.2,10.1-5.8,13.5-10.8,3.4-5,5.1-10.9,5.1-17.6s-.8-8.6-2.3-12.3c-1.5-3.8-3.6-7-6.3-9.7-2.7-2.7-5.9-4.8-9.7-6.3-3.8-1.5-7.9-2.2-12.5-2.2h-40.4v82.1h17v-21.4h16.8c3.4,4.9,6.8,9.6,10.2,14.3.7.9,2.4,3.6,4.7,7.2,6,1,10.5,6.2,10.5,12.5v4.2c8.8,13.9,18.4,29.1,20.3,31.7h20.3ZM366.4-137.9c-1.7.6-3.3.9-4.8.9h-23.4v-30.5h23.4c3,0,5.4.6,7.2,1.7,1.8,1.1,3.2,2.5,4.1,4.1,1,1.6,1.6,3.3,1.9,5.1.3,1.8.5,3.3.5,4.6,0,2.5-.4,4.7-1.3,6.6-.8,1.9-1.9,3.4-3.2,4.7-1.3,1.3-2.8,2.2-4.4,2.8Z"/>
  </g>
  <g>
    <path d="M251.1-73.8c.5-.2.9-.6,1.2-1s.6-.9.7-1.4c.2-.5.3-1,.3-1.5s0-1-.3-1.4-.4-.9-.7-1.2c-.3-.3-.7-.6-1.1-.8-.4-.2-.8-.3-1.3-.3h-8.3v8h7.9c.6,0,1.2-.1,1.7-.4Z"/>
    <polygon points="274.7 -64.4 284.3 -64.4 279.5 -74.5 274.7 -64.4"/>
    <path d="M253.4-66.6c-.8-.8-2-1.1-3.5-1.1h-8.4v8.5h9.1c.5,0,1.1-.1,1.6-.4.5-.3.9-.6,1.3-1.1.4-.4.7-.9.9-1.5.2-.5.3-1.1.3-1.6,0-1.1-.4-2.1-1.3-2.8Z"/>
    <polygon points="208.9 -64.4 218.5 -64.4 213.8 -74.5 208.9 -64.4"/>
    <path d="M364.7-96.3h-208c-5.8,0-10.5,4.7-10.5,10.5v30.3c0,5.8,4.7,10.5,10.5,10.5h208c5.8,0,10.5-4.7,10.5-10.5v-30.3c0-5.8-4.7-10.5-10.5-10.5ZM192.4-53.5h-6.4v-13.3h-16.5v13.3h-6.4v-33.5h6.4v14.5h16.5v-14.5h6.4v33.5ZM224.2-53.5l-2.6-5.3h-15.8l-2.6,5.3h-7l17.1-33.5h.6l17.1,33.5h-7ZM260.2-58.8c-.5,1.3-1.3,2.3-2.2,3.1-.9.8-2.1,1.3-3.3,1.7-1.3.3-2.6.5-4.1.5h-15.5v-33.5h14.7c1.3,0,2.6.1,3.8.4,1.2.3,2.2.7,3.1,1.4.9.7,1.6,1.6,2.1,2.8.5,1.2.8,2.8.8,4.7s-.1,1.4-.4,2.2c-.3.8-.6,1.5-1.1,2.1-.5.6-1,1.2-1.7,1.6-.7.4-1.4.7-2.2.7.8,0,1.6.3,2.4.7.8.4,1.5,1,2.2,1.7s1.2,1.5,1.6,2.4c.4.9.6,1.9.6,2.9,0,1.8-.3,3.4-.8,4.6ZM290-53.5l-2.6-5.3h-15.8l-2.6,5.3h-7l17.1-33.5h.6l17.1,33.5h-7ZM323.6-58.6c-.6,1.3-1.5,2.3-2.6,3.2-1.1.8-2.5,1.5-4,1.9-1.6.4-3.3.6-5.2.6s-3.3-.1-4.6-.4c-1.3-.3-2.5-.6-3.6-1.1-1.1-.4-2.1-1-3.1-1.6-1-.6-2-1.3-3-2l3.5-5.1c1.7,1.2,3.4,2.2,5.2,3,1.8.8,3.7,1.3,5.6,1.3s2-.1,2.7-.4c.8-.3,1.5-.6,2-1,.5-.4,1-.9,1.2-1.4.3-.5.4-1.1.4-1.6s-.2-1.2-.6-1.7c-.4-.5-1-.9-1.6-1.2-.7-.3-1.5-.6-2.4-.8-.9-.2-1.9-.4-2.9-.6-.7-.1-1.4-.3-2.3-.4-.9-.2-1.8-.4-2.7-.7-.9-.3-1.9-.7-2.8-1.1-.9-.5-1.7-1.1-2.5-1.8-.7-.7-1.3-1.6-1.8-2.6-.4-1-.7-2.2-.7-3.5,0-2,.4-3.6,1.2-4.9.8-1.3,1.8-2.3,3-3.1,1.2-.7,2.6-1.3,4.1-1.6,1.5-.3,3-.5,4.4-.5s2.7,0,3.8.3,2.1.5,3.1.8c.9.4,1.9.8,2.8,1.3.9.5,1.9,1.2,2.9,1.9l-3.6,5c-1.6-1.1-3.1-1.9-4.6-2.5-1.5-.6-3-.9-4.6-.9s-1.2,0-1.9.2c-.7.1-1.4.4-2,.7-.6.3-1.1.7-1.6,1.2-.4.5-.6,1-.6,1.7s.2,1.2.7,1.7c.5.5,1.1.8,1.9,1.1.8.3,1.6.6,2.5.8.9.2,1.8.4,2.7.6.6.2,1.4.3,2.3.5.9.2,1.8.4,2.7.6.9.3,1.9.6,2.8,1.1.9.5,1.7,1,2.4,1.8.7.7,1.3,1.6,1.7,2.7.4,1.1.7,2.3.7,3.8s-.3,3.3-.9,4.5ZM359.3-53.5h-6.4v-13.3h-16.5v13.3h-6.4v-33.5h6.4v14.5h16.5v-14.5h6.4v33.5Z"/>
  </g>
  <text class="st54" transform="translate(-1301.6 443.2)"><tspan x="0" y="0">Omar</tspan></text>
  <text class="st55" transform="translate(-538.1 370)"><tspan x="0" y="0">H</tspan></text>
  <rect class="st28" x="3139.1" y="-702.6" width="453" height="101.5" rx="-249.9" ry="-249.9"/>
  <text class="st40" transform="translate(3165.1 -617)"><tspan x="0" y="0">HABASH</tspan></text>
  <path d="M-471.2,395h-54.6c-18.3,0-33.2-14.9-33.2-33.2v-54.6c0-18.3,14.9-33.2,33.2-33.2h54.6c18.3,0,33.2,14.9,33.2,33.2v54.6c0,18.3-14.9,33.2-33.2,33.2ZM-525.8,291.2c-8.8,0-16,7.2-16,16v54.6c0,8.8,7.2,16,16,16h54.6c8.8,0,16-7.2,16-16v-54.6c0-8.8-7.2-16-16-16h-54.6Z"/>
</svg>